<?xml version="1.0" standalone="no"?>
<!DOCTYPE svg PUBLIC "-//W3C//DTD SVG 20010904//EN"
 "http://www.w3.org/TR/2001/REC-SVG-20010904/DTD/svg10.dtd">
<svg version="1.0" xmlns="http://www.w3.org/2000/svg"
 width="620.000000pt" height="801.000000pt" viewBox="0 0 620.000000 801.000000"
 preserveAspectRatio="xMidYMid meet">

<g transform="translate(0.000000,801.000000) scale(0.100000,-0.100000)"
fill="#000000" stroke="none">
<path d="M3690 5645 c-49 -22 -97 -71 -126 -127 -27 -53 -30 -70 -11 -62 7 2
19 20 26 39 28 79 92 125 174 125 103 0 393 -68 562 -131 262 -99 393 -137
615 -179 225 -42 304 -59 324 -66 22 -8 20 9 -3 30 -21 19 -109 45 -296 86
-207 45 -353 94 -399 135 -39 35 -57 40 -66 18 -3 -7 -22 3 -50 28 -25 22 -62
51 -82 65 l-37 26 -44 -21 c-35 -17 -49 -19 -77 -11 -65 19 -271 49 -373 55
-81 4 -109 2 -137 -10z m595 -55 c-3 -5 -11 -10 -16 -10 -6 0 -7 5 -4 10 3 6
11 10 16 10 6 0 7 -4 4 -10z m230 -90 c3 -5 1 -10 -4 -10 -6 0 -11 5 -11 10 0
6 2 10 4 10 3 0 8 -4 11 -10z"/>
<path d="M3525 5378 c-80 -29 -145 -94 -145 -144 0 -12 -7 -27 -15 -34 -21
-17 -45 -111 -39 -151 5 -29 0 -41 -34 -84 -53 -67 -81 -135 -94 -225 -8 -59
-7 -83 3 -115 14 -39 16 -40 58 -40 55 0 81 30 88 101 3 27 10 54 15 61 5 7 7
17 3 22 -3 6 9 17 27 25 18 7 48 25 67 40 l34 25 20 -22 c18 -21 19 -21 15 -2
-2 11 -22 30 -48 43 -25 13 -55 34 -67 46 -24 23 -45 95 -25 82 7 -4 44 -9 84
-11 89 -5 124 11 113 53 -9 37 -43 71 -87 89 -21 8 -38 19 -38 24 0 12 38 35
84 49 49 16 116 75 116 104 0 31 -11 43 -53 61 -42 17 -42 17 -82 3z"/>
<path d="M3920 5380 c0 -5 5 -10 10 -10 6 0 10 5 10 10 0 6 -4 10 -10 10 -5 0
-10 -4 -10 -10z"/>
<path d="M3835 5370 c3 -5 8 -10 11 -10 2 0 4 5 4 10 0 6 -5 10 -11 10 -5 0
-7 -4 -4 -10z"/>
<path d="M3875 5360 c3 -5 8 -10 11 -10 2 0 4 5 4 10 0 6 -5 10 -11 10 -5 0
-7 -4 -4 -10z"/>
<path d="M3978 5363 c7 -3 16 -2 19 1 4 3 -2 6 -13 5 -11 0 -14 -3 -6 -6z"/>
<path d="M3920 5340 c0 -5 5 -10 10 -10 6 0 10 5 10 10 0 6 -4 10 -10 10 -5 0
-10 -4 -10 -10z"/>
<path d="M3970 5320 c-9 -6 -10 -10 -3 -10 6 0 15 5 18 10 8 12 4 12 -15 0z"/>
<path d="M3940 5180 c0 -5 5 -10 11 -10 5 0 7 5 4 10 -3 6 -8 10 -11 10 -2 0
-4 -4 -4 -10z"/>
<path d="M4370 5179 c0 -5 5 -7 10 -4 6 3 10 8 10 11 0 2 -4 4 -10 4 -5 0 -10
-5 -10 -11z"/>
<path d="M4415 5160 c-3 -6 1 -7 9 -4 18 7 21 14 7 14 -6 0 -13 -4 -16 -10z"/>
<path d="M4520 5150 c-13 -8 -12 -10 3 -10 9 0 17 5 17 10 0 12 -1 12 -20 0z"/>
<path d="M4460 5140 c-13 -8 -12 -10 3 -10 9 0 17 5 17 10 0 12 -1 12 -20 0z"/>
<path d="M3930 5130 c0 -5 5 -10 10 -10 6 0 10 5 10 10 0 6 -4 10 -10 10 -5 0
-10 -4 -10 -10z"/>
<path d="M4550 5134 c0 -4 63 -34 72 -34 4 0 8 4 8 10 0 5 -7 7 -15 4 -8 -4
-17 1 -21 9 -4 12 -44 21 -44 11z"/>
<path d="M4510 5120 c0 -5 5 -10 10 -10 6 0 10 5 10 10 0 6 -4 10 -10 10 -5 0
-10 -4 -10 -10z"/>
<path d="M4550 5100 c-13 -8 -13 -10 2 -10 9 0 20 5 23 10 8 13 -5 13 -25 0z"/>
<path d="M4665 5099 c-4 -6 -5 -12 -2 -15 2 -3 7 2 10 11 7 17 1 20 -8 4z"/>
<path d="M4595 5080 c-3 -5 1 -10 9 -10 9 0 16 5 16 10 0 6 -4 10 -9 10 -6 0
-13 -4 -16 -10z"/>
<path d="M4680 5069 c0 -5 7 -9 15 -9 8 0 24 -6 35 -12 15 -10 22 -10 32 0 11
11 10 12 -3 7 -9 -3 -23 0 -30 7 -16 15 -49 20 -49 7z"/>
<path d="M4640 5060 c-12 -8 -11 -10 8 -10 12 0 22 5 22 10 0 13 -11 13 -30 0z"/>
<path d="M4685 5040 c-19 -8 -19 -9 3 -9 12 -1 22 4 22 9 0 6 -1 10 -2 9 -2 0
-12 -4 -23 -9z"/>
<path d="M4797 5034 c-3 -5 1 -15 9 -22 16 -14 18 -5 5 17 -5 7 -11 9 -14 5z"/>
<path d="M4728 5013 c7 -3 16 -2 19 1 4 3 -2 6 -13 5 -11 0 -14 -3 -6 -6z"/>
<path d="M4840 5018 c-1 -5 -3 -13 -4 -19 0 -7 -10 -15 -21 -20 -16 -6 -17 -8
-3 -8 9 -1 19 3 22 8 3 5 15 7 26 4 16 -4 18 -8 9 -19 -8 -10 -8 -14 0 -14 6
0 11 4 11 10 0 5 6 8 13 6 6 -1 9 -1 5 1 -5 3 -8 11 -8 18 0 8 -7 11 -19 8
-13 -3 -21 1 -24 14 -3 10 -6 15 -7 11z"/>
<path d="M4785 5000 c-3 -5 -13 -6 -22 -3 -11 4 -14 3 -9 -5 10 -17 33 -15 40
3 6 17 0 20 -9 5z"/>
<path d="M4906 4941 c-3 -5 5 -8 18 -7 13 0 22 4 19 9 -6 10 -31 9 -37 -2z"/>
<path d="M4386 4908 c-23 -37 -24 -75 -1 -93 l20 -15 -20 7 c-11 3 -25 10 -31
15 -30 23 -194 96 -199 88 -9 -14 5 -35 35 -53 17 -10 27 -23 24 -31 -3 -7 9
-27 25 -44 17 -17 31 -37 31 -46 0 -8 11 -23 25 -34 14 -11 25 -27 25 -35 0
-9 11 -24 25 -35 14 -11 25 -26 25 -34 0 -17 23 -39 59 -58 19 -10 25 -9 32 1
6 10 9 8 9 -8 0 -12 12 -30 29 -42 33 -24 47 -26 54 -8 4 7 6 6 6 -5 2 -29
121 -88 121 -59 0 6 4 11 10 11 5 0 7 -7 4 -15 -8 -21 61 -53 84 -39 11 8 25
7 46 0 22 -8 30 -8 33 2 3 6 10 9 16 5 16 -11 237 -13 237 -3 0 4 -37 32 -82
61 l-83 54 33 35 c18 19 31 39 29 45 -2 5 -23 21 -46 34 -33 18 -49 37 -71 83
-76 156 -170 211 -320 187 -59 -9 -64 -8 -115 21 l-54 31 -15 -23z m84 -48 c0
-5 -5 -10 -11 -10 -5 0 -7 5 -4 10 3 6 8 10 11 10 2 0 4 -4 4 -10z m-223 -32
c-3 -8 -6 -5 -6 6 -1 11 2 17 5 13 3 -3 4 -12 1 -19z m193 12 c0 -5 -5 -10
-11 -10 -5 0 -7 5 -4 10 3 6 8 10 11 10 2 0 4 -4 4 -10z m107 -12 c-3 -8 -6
-5 -6 6 -1 11 2 17 5 13 3 -3 4 -12 1 -19z m-77 -8 c0 -5 -2 -10 -4 -10 -3 0
-8 5 -11 10 -3 6 -1 10 4 10 6 0 11 -4 11 -10z m217 -22 c-3 -7 -5 -2 -5 12 0
14 2 19 5 13 2 -7 2 -19 0 -25z m-416 -5 c13 -16 12 -17 -3 -4 -17 13 -22 21
-14 21 2 0 10 -8 17 -17z m529 4 c0 -2 -12 -14 -27 -28 l-28 -24 24 28 c23 25
31 32 31 24z m-490 -46 c0 -9 4 -22 10 -29 5 -7 3 -6 -5 1 -17 14 -30 61 -14
52 5 -4 9 -14 9 -24z m37 9 c1 -11 -2 -18 -8 -15 -11 7 -12 35 -1 35 4 0 8 -9
9 -20z m184 -17 c13 -17 13 -17 -6 -3 -11 8 -22 16 -24 17 -2 2 0 3 6 3 6 0
17 -8 24 -17z m42 -18 c-12 -9 -29 -26 -38 -38 -8 -12 -15 -16 -15 -10 0 7 11
24 25 38 14 14 31 25 38 25 6 0 2 -7 -10 -15z m-180 -94 c9 -7 23 -27 32 -44
15 -30 15 -30 -5 -12 -11 10 -20 22 -20 28 0 5 -11 22 -25 39 -14 16 -25 37
-25 46 1 10 7 4 14 -13 7 -17 20 -36 29 -44z m27 45 c0 -7 11 -23 25 -36 13
-12 22 -27 19 -31 -2 -4 9 -18 26 -30 16 -13 30 -30 30 -39 0 -9 6 -22 13 -30
6 -8 2 -6 -10 4 -13 11 -23 24 -23 31 0 6 -11 22 -25 35 -14 13 -25 29 -25 35
0 6 -11 22 -25 35 -24 23 -36 58 -15 45 6 -3 10 -12 10 -19z m216 -42 c4 -26
2 -36 -4 -29 -11 11 -15 29 -13 59 2 29 10 15 17 -30z m-119 -6 c-3 -7 -5 -2
-5 12 0 14 2 19 5 13 2 -7 2 -19 0 -25z m271 -33 c-3 -3 -9 2 -12 12 -6 14 -5
15 5 6 7 -7 10 -15 7 -18z m92 11 c0 -2 -7 -9 -15 -16 -13 -11 -14 -10 -9 4 5
14 24 23 24 12z m-45 -26 c3 -5 2 -10 -4 -10 -5 0 -13 5 -16 10 -3 6 -2 10 4
10 5 0 13 -4 16 -10z m-280 -40 l20 -25 -22 19 c-13 11 -23 24 -23 29 0 6 1 8
3 6 1 -2 11 -15 22 -29z m56 -37 c13 -15 12 -15 -8 -4 -24 12 -29 21 -14 21 5
0 15 -7 22 -17z m63 -47 c-3 -8 -13 -12 -27 -8 -20 5 -20 6 -1 13 29 11 34 10
28 -5z m86 4 c0 -5 -15 -10 -32 -9 -31 1 -32 1 -8 9 35 11 40 11 40 0z m74
-11 c-3 -5 -10 -7 -15 -3 -5 3 -7 10 -3 15 3 5 10 7 15 3 5 -3 7 -10 3 -15z
m87 -12 c-10 -9 -11 -8 -5 6 3 10 9 15 12 12 3 -3 0 -11 -7 -18z m-136 -27
c-3 -5 -18 -10 -33 -9 -24 0 -25 1 -7 9 28 12 47 12 40 0z m75 0 c-8 -5 -26
-9 -40 -9 -23 1 -23 2 5 9 43 11 52 11 35 0z m85 0 c-3 -5 -14 -10 -23 -10
-15 0 -15 2 -2 10 20 13 33 13 25 0z"/>
<path d="M5055 4880 c3 -5 8 -10 11 -10 2 0 4 5 4 10 0 6 -5 10 -11 10 -5 0
-7 -4 -4 -10z"/>
<path d="M5060 4846 c0 -2 7 -7 16 -10 8 -3 12 -2 9 4 -6 10 -25 14 -25 6z"/>
<path d="M3810 4800 c0 -5 5 -10 11 -10 5 0 7 5 4 10 -3 6 -8 10 -11 10 -2 0
-4 -4 -4 -10z"/>
<path d="M3840 4790 c0 -5 5 -10 10 -10 6 0 10 5 10 10 0 6 -4 10 -10 10 -5 0
-10 -4 -10 -10z"/>
<path d="M3900 4749 c0 -5 5 -7 10 -4 6 3 10 8 10 11 0 2 -4 4 -10 4 -5 0 -10
-5 -10 -11z"/>
<path d="M3835 4740 c3 -5 8 -10 11 -10 2 0 4 5 4 10 0 6 -5 10 -11 10 -5 0
-7 -4 -4 -10z"/>
<path d="M3360 4730 c0 -5 5 -10 10 -10 6 0 10 5 10 10 0 6 -4 10 -10 10 -5 0
-10 -4 -10 -10z"/>
<path d="M3740 4734 c0 -13 18 -39 24 -34 2 3 -2 14 -10 24 -8 11 -14 16 -14
10z"/>
<path d="M3775 4720 c3 -5 11 -10 16 -10 6 0 7 5 4 10 -3 6 -11 10 -16 10 -6
0 -7 -4 -4 -10z"/>
<path d="M3860 4720 c0 -5 5 -10 11 -10 5 0 7 5 4 10 -3 6 -8 10 -11 10 -2 0
-4 -4 -4 -10z"/>
<path d="M3985 4710 c-3 -5 -1 -10 4 -10 6 0 11 5 11 10 0 6 -2 10 -4 10 -3 0
-8 -4 -11 -10z"/>
<path d="M2918 4665 c-21 -14 -53 -46 -73 -72 -24 -32 -57 -57 -104 -82 -38
-20 -81 -46 -96 -59 -15 -13 -44 -25 -73 -28 -26 -3 -81 -15 -122 -27 -60 -17
-83 -30 -116 -63 -24 -23 -62 -48 -88 -57 -25 -9 -67 -30 -93 -48 -37 -26 -63
-35 -112 -40 -49 -5 -89 -20 -185 -68 -130 -65 -158 -91 -137 -128 5 -11 8
-23 5 -26 -3 -3 4 -23 16 -46 15 -30 26 -41 44 -41 47 0 55 33 28 118 -13 38
-5 44 93 72 35 10 72 21 83 24 18 6 20 4 13 -21 -9 -33 5 -104 22 -115 24 -15
57 -7 88 20 26 23 33 38 37 80 2 29 8 52 13 52 5 0 9 9 9 21 0 12 4 17 11 13
8 -5 8 -1 0 14 -11 20 -3 29 84 93 8 6 10 -12 7 -54 -3 -53 -1 -65 17 -81 30
-27 65 -14 106 42 19 26 35 52 35 59 0 7 7 10 15 7 8 -4 15 -1 15 5 0 6 -4 11
-10 11 -5 0 -7 7 -3 16 3 9 12 13 22 9 13 -5 14 -4 4 6 -28 28 -15 44 37 45
l50 0 14 -45 c23 -78 44 -121 60 -121 8 0 26 10 40 23 22 19 26 31 28 87 2 36
-1 76 -5 90 -6 18 -5 21 2 10 16 -23 23 -5 10 24 -12 26 -10 30 44 84 55 55
69 60 72 24 3 -31 35 -83 60 -94 30 -14 71 10 86 50 10 26 1 111 -17 156 -5
14 -4 17 4 12 17 -10 15 3 -3 21 -14 14 -14 17 1 34 24 27 5 24 -38 -6z"/>
<path d="M3540 4510 c0 -6 7 -10 15 -10 8 0 15 2 15 4 0 2 -7 6 -15 10 -8 3
-15 1 -15 -4z"/>
<path d="M4990 4493 c0 -14 3 -24 6 -20 4 3 13 -1 21 -9 16 -16 33 -10 33 11
0 13 -37 45 -52 45 -5 0 -8 -12 -8 -27z"/>
<path d="M4355 4490 c-3 -5 -1 -10 4 -10 6 0 11 5 11 10 0 6 -2 10 -4 10 -3 0
-8 -4 -11 -10z"/>
<path d="M5487 4423 c-13 -12 -7 -24 11 -21 12 2 18 -5 20 -24 4 -34 -14 -44
-184 -98 -71 -23 -239 -77 -374 -120 -293 -95 -553 -175 -597 -185 -26 -5 -33
-12 -33 -31 0 -13 -4 -24 -9 -24 -5 0 -7 10 -3 22 4 18 2 20 -19 14 -303 -84
-522 -128 -639 -130 -119 -1 -156 12 -191 67 -19 30 -20 43 -15 185 3 83 3
152 0 152 -19 0 -170 -117 -234 -180 -201 -201 -209 -429 -20 -525 147 -74
346 -53 827 91 100 30 188 54 196 54 8 0 18 12 23 28 5 20 8 23 11 10 3 -10 8
-18 13 -18 5 0 73 22 152 50 155 54 163 56 152 38 -5 -7 3 -5 16 5 97 68 130
83 550 243 168 64 325 126 350 138 44 20 45 22 53 81 15 99 -22 213 -56 178z
m-1185 -555 c-8 -8 -9 -4 -5 13 4 13 8 18 11 10 2 -7 -1 -18 -6 -23z m-16 -54
c-4 -9 -9 -15 -11 -12 -3 3 -3 13 1 22 4 9 9 15 11 12 3 -3 3 -13 -1 -22z
m-21 -54 c-4 -12 -9 -19 -12 -17 -3 3 -2 15 2 27 4 12 9 19 12 17 3 -3 2 -15
-2 -27z"/>
<path d="M5210 4319 c-35 -12 -43 -16 -20 -12 40 7 112 32 90 31 -8 0 -40 -8
-70 -19z"/>
<path d="M5110 4290 c-13 -9 -13 -10 0 -10 8 0 22 5 30 10 13 9 13 10 0 10 -8
0 -22 -5 -30 -10z"/>
<path d="M2521 4250 c-1 -14 -10 -57 -21 -97 -10 -39 -22 -103 -26 -142 -6
-65 -5 -71 12 -71 11 0 28 8 39 16 19 15 19 15 -7 9 l-27 -7 4 64 c2 34 13 90
23 123 11 38 15 73 11 95 -5 27 -7 29 -8 10z"/>
<path d="M5028 4263 c7 -3 16 -2 19 1 4 3 -2 6 -13 5 -11 0 -14 -3 -6 -6z"/>
<path d="M4950 4244 c-22 -8 -28 -13 -15 -13 11 0 34 6 50 14 38 17 11 17 -35
-1z"/>
<path d="M4500 4240 c0 -5 5 -10 10 -10 6 0 10 5 10 10 0 6 -4 10 -10 10 -5 0
-10 -4 -10 -10z"/>
<path d="M4470 4219 c0 -5 5 -7 10 -4 6 3 10 8 10 11 0 2 -4 4 -10 4 -5 0 -10
-5 -10 -11z"/>
<path d="M4825 4210 c-13 -5 -14 -9 -5 -9 8 0 24 4 35 9 13 5 14 9 5 9 -8 0
-24 -4 -35 -9z"/>
<path d="M4778 4193 c7 -3 16 -2 19 1 4 3 -2 6 -13 5 -11 0 -14 -3 -6 -6z"/>
<path d="M4518 4183 c7 -3 16 -2 19 1 4 3 -2 6 -13 5 -11 0 -14 -3 -6 -6z"/>
<path d="M4480 4170 c0 -5 7 -10 16 -10 8 0 12 5 9 10 -3 6 -10 10 -16 10 -5
0 -9 -4 -9 -10z"/>
<path d="M5330 4065 c0 -5 5 -17 10 -25 5 -8 10 -10 10 -5 0 6 -5 17 -10 25
-5 8 -10 11 -10 5z"/>
<path d="M5305 4031 c-3 -5 -1 -12 5 -16 5 -3 10 1 10 9 0 18 -6 21 -15 7z"/>
<path d="M5260 4019 c0 -15 18 -19 23 -6 3 8 -1 14 -9 14 -8 0 -14 -4 -14 -8z"/>
<path d="M5227 3999 c3 -10 13 -19 22 -18 10 0 11 2 3 6 -6 2 -10 8 -7 13 3 4
-1 10 -9 13 -10 4 -12 0 -9 -14z"/>
<path d="M5180 4004 c0 -13 18 -39 24 -34 2 3 -2 14 -10 24 -8 11 -14 16 -14
10z"/>
<path d="M5113 3955 c-3 -9 -3 -18 -1 -21 3 -3 8 4 11 16 6 23 -1 27 -10 5z"/>
<path d="M5150 3960 c0 -5 5 -10 11 -10 5 0 7 5 4 10 -3 6 -8 10 -11 10 -2 0
-4 -4 -4 -10z"/>
<path d="M5050 3953 c0 -15 29 -49 30 -35 0 7 -7 20 -15 28 -8 9 -15 11 -15 7z"/>
<path d="M4983 3905 c-3 -9 -3 -18 -1 -21 3 -3 8 4 11 16 6 23 -1 27 -10 5z"/>
<path d="M5020 3910 c0 -5 5 -10 10 -10 6 0 10 5 10 10 0 6 -4 10 -10 10 -5 0
-10 -4 -10 -10z"/>
<path d="M4920 3900 c0 -21 17 -46 25 -38 4 4 0 17 -9 30 -10 14 -16 17 -16 8z"/>
<path d="M4843 3863 c2 -12 6 -26 10 -29 11 -11 8 19 -3 36 -8 12 -9 10 -7 -7z"/>
<path d="M4893 3873 c-15 -5 -17 -23 -4 -23 5 0 11 7 15 15 3 8 4 15 3 14 -1
0 -8 -3 -14 -6z"/>
<path d="M4810 3830 c0 -5 5 -10 11 -10 5 0 7 5 4 10 -3 6 -8 10 -11 10 -2 0
-4 -4 -4 -10z"/>
<path d="M4770 3810 c0 -5 5 -10 11 -10 5 0 7 5 4 10 -3 6 -8 10 -11 10 -2 0
-4 -4 -4 -10z"/>
<path d="M4670 3775 c7 -8 17 -15 22 -15 5 0 3 7 -6 15 -8 8 -18 15 -22 15 -3
0 -1 -7 6 -15z"/>
<path d="M1670 3674 c0 -6 7 -19 15 -30 8 -10 14 -14 14 -9 0 6 -6 19 -14 29
-8 11 -15 15 -15 10z"/>
<path d="M600 2959 c93 -78 387 -168 748 -229 201 -34 452 -59 690 -70 245
-11 1418 -11 2072 0 1301 22 1308 23 1394 60 37 15 56 35 56 57 0 3 -17 2 -37
-1 -21 -3 -57 -9 -79 -12 l-41 -6 1 38 c1 28 -3 39 -14 39 -10 0 -14 -11 -15
-37 0 -20 -3 -39 -7 -43 -9 -9 -269 -36 -281 -28 -5 3 -7 21 -4 40 5 31 4 34
-16 31 -18 -2 -22 -10 -22 -38 0 -32 -3 -35 -40 -42 -22 -5 -62 -7 -90 -6
l-50 3 2 38 c2 34 0 38 -19 35 -18 -2 -22 -10 -22 -43 l-1 -40 -90 0 -90 0 -1
34 c0 19 -5 36 -12 39 -13 4 -20 -9 -25 -53 l-4 -30 -84 -6 c-46 -4 -87 -5
-91 -2 -5 2 -8 22 -8 44 0 57 -28 54 -32 -3 l-3 -43 -92 -3 -93 -3 0 41 c0 33
-3 40 -20 40 -17 0 -20 -7 -20 -40 l0 -40 -90 0 c-96 0 -98 1 -91 58 1 6 -7
12 -18 12 -16 0 -20 -8 -23 -37 l-3 -37 -90 -1 -90 0 -3 38 c-3 30 -7 37 -20
35 -12 -2 -18 -15 -20 -41 l-3 -38 -92 3 -92 3 1 33 c2 27 -2 32 -20 32 -19 0
-21 -4 -18 -35 l4 -35 -116 0 -116 0 0 35 c0 28 -4 35 -19 35 -16 0 -20 -8
-23 -37 l-3 -38 -95 0 -95 0 1 38 c1 33 -2 37 -22 37 -21 0 -24 -5 -24 -40 l0
-41 -97 3 -98 3 0 30 c0 31 -18 51 -35 40 -6 -3 -10 -22 -10 -41 l0 -34 -69 0
c-38 0 -83 3 -100 6 -27 6 -31 11 -31 39 0 19 -6 35 -14 38 -20 8 -26 -2 -26
-40 l0 -34 -97 3 -98 3 -3 43 c-3 34 -7 43 -20 40 -13 -2 -17 -14 -17 -43 0
-26 -4 -40 -12 -39 -7 1 -49 2 -93 3 l-80 1 0 45 c0 33 -4 45 -15 45 -11 0
-15 -11 -15 -40 l0 -40 -54 0 c-29 0 -68 3 -85 6 -29 6 -31 9 -31 50 0 32 -4
44 -15 44 -9 0 -15 -9 -15 -22 0 -59 -7 -65 -68 -60 -90 7 -102 15 -102 62 0
29 -4 40 -15 40 -11 0 -15 -12 -15 -45 0 -43 -1 -44 -27 -40 -16 2 -49 7 -75
10 l-48 6 0 45 c0 32 -4 44 -15 44 -11 0 -15 -11 -15 -41 l0 -41 -57 7 c-72 9
-83 17 -83 67 0 50 -24 47 -28 -3 -4 -45 -12 -51 -52 -39 -19 6 -49 12 -65 14
-102 14 -294 71 -473 142 -124 49 -149 54 -112 23z"/>
<path d="M5517 2853 c-11 -10 -8 -63 3 -63 6 0 10 6 11 13 0 6 2 22 5 35 4 21
-6 29 -19 15z"/>
</g>
</svg>
